<?xml version="1.0" encoding="UTF-8"?><svg xmlns="http://www.w3.org/2000/svg" xmlns:xlink="http://www.w3.org/1999/xlink" fill-opacity="1" color-rendering="auto" color-interpolation="auto" text-rendering="auto" stroke="black" stroke-linecap="square" width="652" stroke-miterlimit="10" shape-rendering="auto" stroke-opacity="1" fill="black" stroke-dasharray="none" font-weight="normal" stroke-width="1" height="244" font-family="'Dialog'" font-style="normal" stroke-linejoin="miter" font-size="12px" stroke-dashoffset="0" image-rendering="auto">
  <!--Generated by ySVG 2.5-->
  <defs id="genericDefs"/>
  <g>
    <defs id="defs1">
      <clipPath clipPathUnits="userSpaceOnUse" id="clipPath1">
        <path d="M0 0 L652 0 L652 244 L0 244 L0 0 Z"/>
      </clipPath>
      <clipPath clipPathUnits="userSpaceOnUse" id="clipPath2">
        <path d="M27 11 L679 11 L679 255 L27 255 L27 11 Z"/>
      </clipPath>
      <clipPath clipPathUnits="userSpaceOnUse" id="clipPath3">
        <path d="M42 121 L42 149 L142 149 L142 121 Z"/>
      </clipPath>
      <clipPath clipPathUnits="userSpaceOnUse" id="clipPath4">
        <path d="M302 121 L302 149 L402 149 L402 121 Z"/>
      </clipPath>
      <clipPath clipPathUnits="userSpaceOnUse" id="clipPath5">
        <path d="M563 121 L563 149 L663 149 L663 121 Z"/>
      </clipPath>
    </defs>
    <g fill="rgb(0,184,97)" text-rendering="geometricPrecision" shape-rendering="geometricPrecision" transform="matrix(1,0,0,1,-27,-11)" stroke="rgb(0,184,97)">
      <rect x="43" width="98" height="26" y="122" clip-path="url(#clipPath2)" stroke="none"/>
    </g>
    <g fill="rgb(0,255,138)" text-rendering="geometricPrecision" shape-rendering="geometricPrecision" transform="matrix(1,0,0,1,-27,-11)" stroke="rgb(0,255,138)">
      <rect x="42" width="1" height="28" y="121" clip-path="url(#clipPath2)" stroke="none"/>
      <rect x="43" width="98" height="1" y="121" clip-path="url(#clipPath2)" stroke="none"/>
      <rect x="43" y="148" clip-path="url(#clipPath2)" fill="rgb(0,128,67)" width="99" height="1" stroke="none"/>
      <rect x="141" y="121" clip-path="url(#clipPath2)" fill="rgb(0,128,67)" width="1" height="27" stroke="none"/>
    </g>
    <g font-size="13px" stroke-linecap="butt" transform="matrix(1,0,0,1,-27,-11)" text-rendering="geometricPrecision" font-family="sans-serif" shape-rendering="geometricPrecision" font-weight="bold" stroke-miterlimit="1.45">
      <text x="56.9878" xml:space="preserve" y="138.288" clip-path="url(#clipPath3)" stroke="none">Customer</text>
    </g>
    <g fill="rgb(0,184,97)" text-rendering="geometricPrecision" shape-rendering="geometricPrecision" transform="matrix(1,0,0,1,-27,-11)" stroke="rgb(0,184,97)">
      <rect x="303" width="98" height="26" y="122" clip-path="url(#clipPath2)" stroke="none"/>
      <rect x="302" y="121" clip-path="url(#clipPath2)" fill="rgb(0,255,138)" width="1" height="28" stroke="none"/>
      <rect x="303" y="121" clip-path="url(#clipPath2)" fill="rgb(0,255,138)" width="98" height="1" stroke="none"/>
      <rect x="303" y="148" clip-path="url(#clipPath2)" fill="rgb(0,128,67)" width="99" height="1" stroke="none"/>
      <rect x="401" y="121" clip-path="url(#clipPath2)" fill="rgb(0,128,67)" width="1" height="27" stroke="none"/>
    </g>
    <g font-size="13px" stroke-linecap="butt" transform="matrix(1,0,0,1,-27,-11)" text-rendering="geometricPrecision" font-family="sans-serif" shape-rendering="geometricPrecision" font-weight="bold" stroke-miterlimit="1.45">
      <text x="331.734" xml:space="preserve" y="138.288" clip-path="url(#clipPath4)" stroke="none">Order</text>
    </g>
    <g fill="rgb(0,184,97)" text-rendering="geometricPrecision" shape-rendering="geometricPrecision" transform="matrix(1,0,0,1,-27,-11)" stroke="rgb(0,184,97)">
      <rect x="564" width="98" height="26" y="122" clip-path="url(#clipPath2)" stroke="none"/>
      <rect x="563" y="121" clip-path="url(#clipPath2)" fill="rgb(0,255,138)" width="1" height="28" stroke="none"/>
      <rect x="564" y="121" clip-path="url(#clipPath2)" fill="rgb(0,255,138)" width="98" height="1" stroke="none"/>
      <rect x="564" y="148" clip-path="url(#clipPath2)" fill="rgb(0,128,67)" width="99" height="1" stroke="none"/>
      <rect x="662" y="121" clip-path="url(#clipPath2)" fill="rgb(0,128,67)" width="1" height="27" stroke="none"/>
    </g>
    <g font-size="13px" stroke-linecap="butt" transform="matrix(1,0,0,1,-27,-11)" text-rendering="geometricPrecision" font-family="sans-serif" shape-rendering="geometricPrecision" font-weight="bold" stroke-miterlimit="1.45">
      <text x="584.7808" xml:space="preserve" y="138.288" clip-path="url(#clipPath5)" stroke="none">Portrait</text>
      <path fill="none" d="M92.2142 121.211 L92.2142 65.3156 L92.2142 65.3156 L324.0653 65.3156 L324.0653 113.1941" clip-path="url(#clipPath2)"/>
      <path d="M324.0653 121.1941 L329.0653 109.1941 L324.0653 112.1941 L319.0653 109.1941 Z" stroke="none" clip-path="url(#clipPath2)"/>
      <text x="188.9093" font-size="12px" y="39.4699" clip-path="url(#clipPath2)" stroke="none" font-weight="normal" xml:space="preserve">orders</text>
      <path fill="none" d="M324.8571 149.6108 L324.8571 200.3156 L92.2142 200.3156 L92.2142 157.581" clip-path="url(#clipPath2)"/>
      <path d="M92.2142 149.581 L87.2142 161.581 L92.2142 158.581 L97.2142 161.581 Z" stroke="none" clip-path="url(#clipPath2)"/>
      <text x="180.2817" font-size="12px" y="234.4699" clip-path="url(#clipPath2)" stroke="none" font-weight="normal" xml:space="preserve">customer</text>
      <path fill="none" d="M385.1714 121.2177 L385.1714 66.0281 L613.25 66.0281 L613.25 113.2198" clip-path="url(#clipPath2)"/>
      <path d="M613.25 121.2198 L618.25 109.2198 L613.25 112.2198 L608.25 109.2198 Z" stroke="none" clip-path="url(#clipPath2)"/>
      <text x="473.6228" font-size="12px" y="40.1824" clip-path="url(#clipPath2)" stroke="none" font-weight="normal" xml:space="preserve">portraits</text>
      <path fill="none" d="M613.25 149.6062 L613.25 200.7234 L386.5738 200.7234 L386.5738 157.6121" clip-path="url(#clipPath2)"/>
      <path d="M386.5738 149.6121 L381.5738 161.6121 L386.5738 158.6121 L391.5738 161.6121 Z" stroke="none" clip-path="url(#clipPath2)"/>
      <text x="480.6814" font-size="12px" y="234.8777" clip-path="url(#clipPath2)" stroke="none" font-weight="normal" xml:space="preserve">orders</text>
    </g>
  </g>
</svg>
