<?xml version="1.0" encoding="UTF-8"?><svg xmlns="http://www.w3.org/2000/svg" xmlns:xlink="http://www.w3.org/1999/xlink" fill-opacity="1" color-rendering="auto" color-interpolation="auto" text-rendering="auto" stroke="black" stroke-linecap="square" width="568" stroke-miterlimit="10" shape-rendering="auto" stroke-opacity="1" fill="black" stroke-dasharray="none" font-weight="normal" stroke-width="1" height="95" font-family="'Dialog'" font-style="normal" stroke-linejoin="miter" font-size="12px" stroke-dashoffset="0" image-rendering="auto">
  <!--Generated by ySVG 2.5-->
  <defs id="genericDefs"/>
  <g>
    <defs id="defs1">
      <clipPath clipPathUnits="userSpaceOnUse" id="clipPath1">
        <path d="M0 0 L568 0 L568 95 L0 95 L0 0 Z"/>
      </clipPath>
      <clipPath clipPathUnits="userSpaceOnUse" id="clipPath2">
        <path d="M280 455 L848 455 L848 550 L280 550 L280 455 Z"/>
      </clipPath>
      <clipPath clipPathUnits="userSpaceOnUse" id="clipPath3">
        <path d="M295 470 L295 533 L395 533 L395 470 Z"/>
      </clipPath>
      <clipPath clipPathUnits="userSpaceOnUse" id="clipPath4">
        <path d="M513 470 L513 533 L613 533 L613 470 Z"/>
      </clipPath>
      <clipPath clipPathUnits="userSpaceOnUse" id="clipPath5">
        <path d="M732 470 L732 533 L832 533 L832 470 Z"/>
      </clipPath>
    </defs>
    <g fill="rgb(0,184,97)" text-rendering="geometricPrecision" shape-rendering="geometricPrecision" transform="matrix(1,0,0,1,-280,-455)" stroke="rgb(0,184,97)">
      <rect x="296" width="98" height="61" y="471" clip-path="url(#clipPath2)" stroke="none"/>
    </g>
    <g fill="rgb(0,255,138)" text-rendering="geometricPrecision" shape-rendering="geometricPrecision" transform="matrix(1,0,0,1,-280,-455)" stroke="rgb(0,255,138)">
      <rect x="295" width="1" height="63" y="470" clip-path="url(#clipPath2)" stroke="none"/>
      <rect x="296" width="98" height="1" y="470" clip-path="url(#clipPath2)" stroke="none"/>
      <rect x="296" y="532" clip-path="url(#clipPath2)" fill="rgb(0,128,67)" width="99" height="1" stroke="none"/>
      <rect x="394" y="470" clip-path="url(#clipPath2)" fill="rgb(0,128,67)" width="1" height="62" stroke="none"/>
    </g>
    <g font-size="13px" stroke-linecap="butt" transform="matrix(1,0,0,1,-280,-455)" text-rendering="geometricPrecision" font-family="sans-serif" shape-rendering="geometricPrecision" font-weight="bold" stroke-miterlimit="1.45">
      <text x="310.1815" xml:space="preserve" y="487.9993" clip-path="url(#clipPath3)" stroke="none">Customer</text>
    </g>
    <g text-rendering="geometricPrecision" shape-rendering="geometricPrecision" transform="matrix(1,0,0,1,-280,-455)">
      <line y2="496" fill="none" x1="296" clip-path="url(#clipPath3)" x2="394" y1="496"/>
      <text stroke-linecap="butt" x="300.4078" y="512.2039" clip-path="url(#clipPath3)" font-family="sans-serif" stroke="none" stroke-miterlimit="1.45" xml:space="preserve">name</text>
      <text stroke-linecap="butt" x="300.4078" y="526.1726" clip-path="url(#clipPath3)" font-family="sans-serif" stroke="none" stroke-miterlimit="1.45" xml:space="preserve">address</text>
      <line y2="534" fill="none" x1="296" clip-path="url(#clipPath3)" x2="394" y1="534"/>
      <rect x="514" y="471" clip-path="url(#clipPath2)" fill="rgb(0,184,97)" width="98" height="61" stroke="none"/>
      <rect x="513" y="470" clip-path="url(#clipPath2)" fill="rgb(0,255,138)" width="1" height="63" stroke="none"/>
      <rect x="514" y="470" clip-path="url(#clipPath2)" fill="rgb(0,255,138)" width="98" height="1" stroke="none"/>
      <rect x="514" y="532" clip-path="url(#clipPath2)" fill="rgb(0,128,67)" width="99" height="1" stroke="none"/>
      <rect x="612" y="470" clip-path="url(#clipPath2)" fill="rgb(0,128,67)" width="1" height="62" stroke="none"/>
    </g>
    <g font-size="13px" stroke-linecap="butt" transform="matrix(1,0,0,1,-280,-455)" text-rendering="geometricPrecision" font-family="sans-serif" shape-rendering="geometricPrecision" font-weight="bold" stroke-miterlimit="1.45">
      <text x="542.8964" xml:space="preserve" y="487.9993" clip-path="url(#clipPath4)" stroke="none">Order</text>
    </g>
    <g text-rendering="geometricPrecision" shape-rendering="geometricPrecision" transform="matrix(1,0,0,1,-280,-455)">
      <line y2="496" fill="none" x1="514" clip-path="url(#clipPath4)" x2="612" y1="496"/>
      <text stroke-linecap="butt" x="518.8945" y="512.2039" clip-path="url(#clipPath4)" font-family="sans-serif" stroke="none" stroke-miterlimit="1.45" xml:space="preserve">total</text>
      <text stroke-linecap="butt" x="518.8945" y="526.1726" clip-path="url(#clipPath4)" font-family="sans-serif" stroke="none" stroke-miterlimit="1.45" xml:space="preserve">due date</text>
      <line y2="534" fill="none" x1="514" clip-path="url(#clipPath4)" x2="612" y1="534"/>
      <rect x="733" y="471" clip-path="url(#clipPath2)" fill="rgb(0,184,97)" width="98" height="61" stroke="none"/>
      <rect x="732" y="470" clip-path="url(#clipPath2)" fill="rgb(0,255,138)" width="1" height="63" stroke="none"/>
      <rect x="733" y="470" clip-path="url(#clipPath2)" fill="rgb(0,255,138)" width="98" height="1" stroke="none"/>
      <rect x="733" y="532" clip-path="url(#clipPath2)" fill="rgb(0,128,67)" width="99" height="1" stroke="none"/>
      <rect x="831" y="470" clip-path="url(#clipPath2)" fill="rgb(0,128,67)" width="1" height="62" stroke="none"/>
    </g>
    <g font-size="13px" stroke-linecap="butt" transform="matrix(1,0,0,1,-280,-455)" text-rendering="geometricPrecision" font-family="sans-serif" shape-rendering="geometricPrecision" font-weight="bold" stroke-miterlimit="1.45">
      <text x="753.9119" xml:space="preserve" y="487.9993" clip-path="url(#clipPath5)" stroke="none">Portrait</text>
    </g>
    <g text-rendering="geometricPrecision" shape-rendering="geometricPrecision" transform="matrix(1,0,0,1,-280,-455)">
      <line y2="496" fill="none" x1="733" clip-path="url(#clipPath5)" x2="831" y1="496"/>
      <text stroke-linecap="butt" x="737.3811" y="512.2039" clip-path="url(#clipPath5)" font-family="sans-serif" stroke="none" stroke-miterlimit="1.45" xml:space="preserve">size</text>
      <text stroke-linecap="butt" x="737.3811" y="526.1726" clip-path="url(#clipPath5)" font-family="sans-serif" stroke="none" stroke-miterlimit="1.45" xml:space="preserve">price</text>
      <line y2="534" fill="none" x1="733" clip-path="url(#clipPath5)" x2="831" y1="534"/>
    </g>
  </g>
</svg>
