<?xml version="1.0" encoding="UTF-8"?><svg xmlns="http://www.w3.org/2000/svg" xmlns:xlink="http://www.w3.org/1999/xlink" fill-opacity="1" color-rendering="auto" color-interpolation="auto" text-rendering="auto" stroke="black" stroke-linecap="square" width="639" stroke-miterlimit="10" shape-rendering="auto" stroke-opacity="1" fill="black" stroke-dasharray="none" font-weight="normal" stroke-width="1" height="408" font-family="'Dialog'" font-style="normal" stroke-linejoin="miter" font-size="12px" stroke-dashoffset="0" image-rendering="auto">
  <!--Generated by ySVG 2.5-->
  <defs id="genericDefs"/>
  <g>
    <defs id="defs1">
      <clipPath clipPathUnits="userSpaceOnUse" id="clipPath1">
        <path d="M0 0 L639 0 L639 408 L0 408 L0 0 Z"/>
      </clipPath>
      <clipPath clipPathUnits="userSpaceOnUse" id="clipPath2">
        <path d="M7 126 L646 126 L646 534 L7 534 L7 126 Z"/>
      </clipPath>
    </defs>
    <g fill="rgb(0,184,97)" text-rendering="geometricPrecision" shape-rendering="geometricPrecision" transform="matrix(1,0,0,1,-7,-126)" stroke="rgb(0,184,97)">
      <circle r="43" clip-path="url(#clipPath2)" cx="66.6071" cy="257.9531" stroke="none"/>
    </g>
    <g text-rendering="geometricPrecision" stroke-miterlimit="1.45" shape-rendering="geometricPrecision" transform="matrix(1,0,0,1,-7,-126)" stroke-linecap="butt">
      <circle fill="none" r="43" clip-path="url(#clipPath2)" cx="66.6071" cy="257.9531"/>
      <text x="32.6168" xml:space="preserve" y="262.1074" clip-path="url(#clipPath2)" font-family="sans-serif" stroke="none">name: John</text>
    </g>
    <g fill="rgb(0,184,97)" text-rendering="geometricPrecision" shape-rendering="geometricPrecision" transform="matrix(1,0,0,1,-7,-126)" stroke="rgb(0,184,97)">
      <circle r="43" clip-path="url(#clipPath2)" cx="66.6071" cy="386.9531" stroke="none"/>
    </g>
    <g text-rendering="geometricPrecision" stroke-miterlimit="1.45" shape-rendering="geometricPrecision" transform="matrix(1,0,0,1,-7,-126)" stroke-linecap="butt">
      <circle fill="none" r="43" clip-path="url(#clipPath2)" cx="66.6071" cy="386.9531"/>
      <text x="24.4225" xml:space="preserve" y="391.1074" clip-path="url(#clipPath2)" font-family="sans-serif" stroke="none">name: Sandra</text>
    </g>
    <g fill="rgb(0,184,97)" text-rendering="geometricPrecision" shape-rendering="geometricPrecision" transform="matrix(1,0,0,1,-7,-126)" stroke="rgb(0,184,97)">
      <circle r="43" clip-path="url(#clipPath2)" cx="327.125" cy="257.9531" stroke="none"/>
    </g>
    <g text-rendering="geometricPrecision" stroke-miterlimit="1.45" shape-rendering="geometricPrecision" transform="matrix(1,0,0,1,-7,-126)" stroke-linecap="butt">
      <circle fill="none" r="43" clip-path="url(#clipPath2)" cx="327.125" cy="257.9531"/>
      <text x="298.0244" xml:space="preserve" y="262.1074" clip-path="url(#clipPath2)" font-family="sans-serif" stroke="none">total: 40$</text>
    </g>
    <g fill="rgb(0,184,97)" text-rendering="geometricPrecision" shape-rendering="geometricPrecision" transform="matrix(1,0,0,1,-7,-126)" stroke="rgb(0,184,97)">
      <circle r="43" clip-path="url(#clipPath2)" cx="327.125" cy="386.9531" stroke="none"/>
    </g>
    <g text-rendering="geometricPrecision" stroke-miterlimit="1.45" shape-rendering="geometricPrecision" transform="matrix(1,0,0,1,-7,-126)" stroke-linecap="butt">
      <circle fill="none" r="43" clip-path="url(#clipPath2)" cx="327.125" cy="386.9531"/>
      <text x="298.0244" xml:space="preserve" y="391.1074" clip-path="url(#clipPath2)" font-family="sans-serif" stroke="none">total: 10$</text>
    </g>
    <g fill="rgb(0,184,97)" text-rendering="geometricPrecision" shape-rendering="geometricPrecision" transform="matrix(1,0,0,1,-7,-126)" stroke="rgb(0,184,97)">
      <circle r="43" clip-path="url(#clipPath2)" cx="587.6429" cy="184.2031" stroke="none"/>
    </g>
    <g text-rendering="geometricPrecision" stroke-miterlimit="1.45" shape-rendering="geometricPrecision" transform="matrix(1,0,0,1,-7,-126)" stroke-linecap="butt">
      <circle fill="none" r="43" clip-path="url(#clipPath2)" cx="587.6429" cy="184.2031"/>
      <text x="568.2719" xml:space="preserve" y="181.373" clip-path="url(#clipPath2)" font-family="sans-serif" stroke="none">size: S</text>
      <text x="561.1469" xml:space="preserve" y="195.3418" clip-path="url(#clipPath2)" font-family="sans-serif" stroke="none">price: 5$</text>
    </g>
    <g fill="rgb(0,184,97)" text-rendering="geometricPrecision" shape-rendering="geometricPrecision" transform="matrix(1,0,0,1,-7,-126)" stroke="rgb(0,184,97)">
      <circle r="43" clip-path="url(#clipPath2)" cx="587.6429" cy="475.7031" stroke="none"/>
    </g>
    <g text-rendering="geometricPrecision" stroke-miterlimit="1.45" shape-rendering="geometricPrecision" transform="matrix(1,0,0,1,-7,-126)" stroke-linecap="butt">
      <circle fill="none" r="43" clip-path="url(#clipPath2)" cx="587.6429" cy="475.7031"/>
      <text x="566.9037" xml:space="preserve" y="472.873" clip-path="url(#clipPath2)" font-family="sans-serif" stroke="none">size: M</text>
      <text x="556.0082" xml:space="preserve" y="486.8418" clip-path="url(#clipPath2)" font-family="sans-serif" stroke="none">priceL 10$</text>
    </g>
    <g fill="rgb(0,184,97)" text-rendering="geometricPrecision" shape-rendering="geometricPrecision" transform="matrix(1,0,0,1,-7,-126)" stroke="rgb(0,184,97)">
      <circle r="43" clip-path="url(#clipPath2)" cx="587.6429" cy="329.9531" stroke="none"/>
    </g>
    <g text-rendering="geometricPrecision" stroke-miterlimit="1.45" shape-rendering="geometricPrecision" transform="matrix(1,0,0,1,-7,-126)" stroke-linecap="butt">
      <circle fill="none" r="43" clip-path="url(#clipPath2)" cx="587.6429" cy="329.9531"/>
      <text x="568.7377" xml:space="preserve" y="327.123" clip-path="url(#clipPath2)" font-family="sans-serif" stroke="none">size: L</text>
      <text x="557.3295" xml:space="preserve" y="341.0918" clip-path="url(#clipPath2)" font-family="sans-serif" stroke="none">price: 35$</text>
      <path fill="none" d="M117.6071 257.9531 L276.125 257.9531" clip-path="url(#clipPath2)"/>
      <path d="M109.6071 257.9531 L121.6071 262.9531 L118.6071 257.9531 L121.6071 252.9531 Z" clip-path="url(#clipPath2)" stroke="none"/>
      <path d="M284.125 257.9531 L272.125 252.9531 L275.125 257.9531 L272.125 262.9531 Z" clip-path="url(#clipPath2)" stroke="none"/>
      <path fill="none" d="M117.6071 386.9531 L276.125 386.9531" clip-path="url(#clipPath2)"/>
      <path d="M109.6071 386.9531 L121.6071 391.9531 L118.6071 386.9531 L121.6071 381.9531 Z" clip-path="url(#clipPath2)" stroke="none"/>
      <path d="M284.125 386.9531 L272.125 381.9531 L275.125 386.9531 L272.125 391.9531 Z" clip-path="url(#clipPath2)" stroke="none"/>
      <path fill="none" d="M376.1966 244.0614 L538.5714 198.0948" clip-path="url(#clipPath2)"/>
      <path d="M368.4991 246.2405 L381.4073 247.7828 L377.1588 243.7891 L378.6834 238.161 Z" clip-path="url(#clipPath2)" stroke="none"/>
      <path d="M546.2689 195.9157 L533.3607 194.3734 L537.6092 198.3672 L536.0845 203.9953 Z" clip-path="url(#clipPath2)" stroke="none"/>
      <path fill="none" d="M375.4006 403.399 L539.3674 459.2572" clip-path="url(#clipPath2)"/>
      <path d="M367.8279 400.8193 L377.5746 409.4218 L376.3472 403.7215 L380.7993 399.956 Z" clip-path="url(#clipPath2)" stroke="none"/>
      <path d="M546.94 461.8369 L537.1934 453.2344 L538.4208 458.9347 L533.9687 462.7002 Z" clip-path="url(#clipPath2)" stroke="none"/>
      <path fill="none" d="M376.2822 271.5388 L538.4857 316.3674" clip-path="url(#clipPath2)"/>
      <path d="M368.5713 269.4077 L378.8058 277.4237 L377.2461 271.8052 L381.4696 267.785 Z" clip-path="url(#clipPath2)" stroke="none"/>
      <path d="M546.1967 318.4985 L535.9622 310.4826 L537.5219 316.101 L533.2983 320.1212 Z" clip-path="url(#clipPath2)" stroke="none"/>
    </g>
  </g>
</svg>
