<?xml version="1.0" encoding="UTF-8"?><svg xmlns="http://www.w3.org/2000/svg" xmlns:xlink="http://www.w3.org/1999/xlink" fill-opacity="1" color-rendering="auto" color-interpolation="auto" text-rendering="auto" stroke="black" stroke-linecap="square" width="652" stroke-miterlimit="10" shape-rendering="auto" stroke-opacity="1" fill="black" stroke-dasharray="none" font-weight="normal" stroke-width="1" height="643" font-family="'Dialog'" font-style="normal" stroke-linejoin="miter" font-size="12px" stroke-dashoffset="0" image-rendering="auto">
  <!--Generated by ySVG 2.5-->
  <defs id="genericDefs"/>
  <g>
    <defs id="defs1">
      <clipPath clipPathUnits="userSpaceOnUse" id="clipPath1">
        <path d="M0 0 L652 0 L652 643 L0 643 L0 0 Z"/>
      </clipPath>
      <clipPath clipPathUnits="userSpaceOnUse" id="clipPath2">
        <path d="M1 -109 L653 -109 L653 534 L1 534 L1 -109 Z"/>
      </clipPath>
      <clipPath clipPathUnits="userSpaceOnUse" id="clipPath3">
        <path d="M537 1 L537 29 L637 29 L637 1 Z"/>
      </clipPath>
      <clipPath clipPathUnits="userSpaceOnUse" id="clipPath4">
        <path d="M277 1 L277 29 L377 29 L377 1 Z"/>
      </clipPath>
      <clipPath clipPathUnits="userSpaceOnUse" id="clipPath5">
        <path d="M16 1 L16 29 L116 29 L116 1 Z"/>
      </clipPath>
    </defs>
    <g fill="rgb(0,184,97)" text-rendering="geometricPrecision" shape-rendering="geometricPrecision" transform="matrix(1,0,0,1,-1,109)" stroke="rgb(0,184,97)">
      <circle r="43" clip-path="url(#clipPath2)" cx="66.6071" cy="257.9531" stroke="none"/>
    </g>
    <g text-rendering="geometricPrecision" stroke-miterlimit="1.45" shape-rendering="geometricPrecision" transform="matrix(1,0,0,1,-1,109)" stroke-linecap="butt">
      <circle fill="none" r="43" clip-path="url(#clipPath2)" cx="66.6071" cy="257.9531"/>
      <text x="32.6168" xml:space="preserve" y="262.1074" clip-path="url(#clipPath2)" font-family="sans-serif" stroke="none">name: John</text>
    </g>
    <g fill="rgb(0,184,97)" text-rendering="geometricPrecision" shape-rendering="geometricPrecision" transform="matrix(1,0,0,1,-1,109)" stroke="rgb(0,184,97)">
      <circle r="43" clip-path="url(#clipPath2)" cx="66.6071" cy="386.9531" stroke="none"/>
    </g>
    <g text-rendering="geometricPrecision" stroke-miterlimit="1.45" shape-rendering="geometricPrecision" transform="matrix(1,0,0,1,-1,109)" stroke-linecap="butt">
      <circle fill="none" r="43" clip-path="url(#clipPath2)" cx="66.6071" cy="386.9531"/>
      <text x="24.4225" xml:space="preserve" y="391.1074" clip-path="url(#clipPath2)" font-family="sans-serif" stroke="none">name: Sandra</text>
    </g>
    <g fill="rgb(0,184,97)" text-rendering="geometricPrecision" shape-rendering="geometricPrecision" transform="matrix(1,0,0,1,-1,109)" stroke="rgb(0,184,97)">
      <circle r="43" clip-path="url(#clipPath2)" cx="327.125" cy="257.9531" stroke="none"/>
    </g>
    <g text-rendering="geometricPrecision" stroke-miterlimit="1.45" shape-rendering="geometricPrecision" transform="matrix(1,0,0,1,-1,109)" stroke-linecap="butt">
      <circle fill="none" r="43" clip-path="url(#clipPath2)" cx="327.125" cy="257.9531"/>
      <text x="298.0244" xml:space="preserve" y="262.1074" clip-path="url(#clipPath2)" font-family="sans-serif" stroke="none">total: 40$</text>
    </g>
    <g fill="rgb(0,184,97)" text-rendering="geometricPrecision" shape-rendering="geometricPrecision" transform="matrix(1,0,0,1,-1,109)" stroke="rgb(0,184,97)">
      <circle r="43" clip-path="url(#clipPath2)" cx="327.125" cy="386.9531" stroke="none"/>
    </g>
    <g text-rendering="geometricPrecision" stroke-miterlimit="1.45" shape-rendering="geometricPrecision" transform="matrix(1,0,0,1,-1,109)" stroke-linecap="butt">
      <circle fill="none" r="43" clip-path="url(#clipPath2)" cx="327.125" cy="386.9531"/>
      <text x="298.0244" xml:space="preserve" y="391.1074" clip-path="url(#clipPath2)" font-family="sans-serif" stroke="none">total: 10$</text>
    </g>
    <g fill="rgb(0,184,97)" text-rendering="geometricPrecision" shape-rendering="geometricPrecision" transform="matrix(1,0,0,1,-1,109)" stroke="rgb(0,184,97)">
      <circle r="43" clip-path="url(#clipPath2)" cx="587.6429" cy="184.2031" stroke="none"/>
    </g>
    <g text-rendering="geometricPrecision" stroke-miterlimit="1.45" shape-rendering="geometricPrecision" transform="matrix(1,0,0,1,-1,109)" stroke-linecap="butt">
      <circle fill="none" r="43" clip-path="url(#clipPath2)" cx="587.6429" cy="184.2031"/>
      <text x="568.2719" xml:space="preserve" y="181.373" clip-path="url(#clipPath2)" font-family="sans-serif" stroke="none">size: S</text>
      <text x="561.1469" xml:space="preserve" y="195.3418" clip-path="url(#clipPath2)" font-family="sans-serif" stroke="none">price: 5$</text>
    </g>
    <g fill="rgb(0,184,97)" text-rendering="geometricPrecision" shape-rendering="geometricPrecision" transform="matrix(1,0,0,1,-1,109)" stroke="rgb(0,184,97)">
      <circle r="43" clip-path="url(#clipPath2)" cx="587.6429" cy="475.7031" stroke="none"/>
    </g>
    <g text-rendering="geometricPrecision" stroke-miterlimit="1.45" shape-rendering="geometricPrecision" transform="matrix(1,0,0,1,-1,109)" stroke-linecap="butt">
      <circle fill="none" r="43" clip-path="url(#clipPath2)" cx="587.6429" cy="475.7031"/>
      <text x="566.9037" xml:space="preserve" y="472.873" clip-path="url(#clipPath2)" font-family="sans-serif" stroke="none">size: M</text>
      <text x="556.0082" xml:space="preserve" y="486.8418" clip-path="url(#clipPath2)" font-family="sans-serif" stroke="none">priceL 10$</text>
    </g>
    <g fill="rgb(0,184,97)" text-rendering="geometricPrecision" shape-rendering="geometricPrecision" transform="matrix(1,0,0,1,-1,109)" stroke="rgb(0,184,97)">
      <circle r="43" clip-path="url(#clipPath2)" cx="587.6429" cy="329.9531" stroke="none"/>
    </g>
    <g text-rendering="geometricPrecision" stroke-miterlimit="1.45" shape-rendering="geometricPrecision" transform="matrix(1,0,0,1,-1,109)" stroke-linecap="butt">
      <circle fill="none" r="43" clip-path="url(#clipPath2)" cx="587.6429" cy="329.9531"/>
      <text x="568.7377" xml:space="preserve" y="327.123" clip-path="url(#clipPath2)" font-family="sans-serif" stroke="none">size: L</text>
      <text x="557.3295" xml:space="preserve" y="341.0918" clip-path="url(#clipPath2)" font-family="sans-serif" stroke="none">price: 35$</text>
    </g>
    <g fill="rgb(0,184,97)" text-rendering="geometricPrecision" shape-rendering="geometricPrecision" transform="matrix(1,0,0,1,-1,109)" stroke="rgb(0,184,97)">
      <rect x="538" width="98" height="26" y="2" clip-path="url(#clipPath2)" stroke="none"/>
      <rect x="537" y="1" clip-path="url(#clipPath2)" fill="rgb(0,255,138)" width="1" height="28" stroke="none"/>
      <rect x="538" y="1" clip-path="url(#clipPath2)" fill="rgb(0,255,138)" width="98" height="1" stroke="none"/>
      <rect x="538" y="28" clip-path="url(#clipPath2)" fill="rgb(0,128,67)" width="99" height="1" stroke="none"/>
      <rect x="636" y="1" clip-path="url(#clipPath2)" fill="rgb(0,128,67)" width="1" height="27" stroke="none"/>
    </g>
    <g font-size="13px" stroke-linecap="butt" transform="matrix(1,0,0,1,-1,109)" text-rendering="geometricPrecision" font-family="sans-serif" shape-rendering="geometricPrecision" font-weight="bold" stroke-miterlimit="1.45">
      <text x="559.1737" xml:space="preserve" y="18.1775" clip-path="url(#clipPath3)" stroke="none">Portrait</text>
    </g>
    <g fill="rgb(0,184,97)" text-rendering="geometricPrecision" shape-rendering="geometricPrecision" transform="matrix(1,0,0,1,-1,109)" stroke="rgb(0,184,97)">
      <rect x="278" width="98" height="26" y="2" clip-path="url(#clipPath2)" stroke="none"/>
      <rect x="277" y="1" clip-path="url(#clipPath2)" fill="rgb(0,255,138)" width="1" height="28" stroke="none"/>
      <rect x="278" y="1" clip-path="url(#clipPath2)" fill="rgb(0,255,138)" width="98" height="1" stroke="none"/>
      <rect x="278" y="28" clip-path="url(#clipPath2)" fill="rgb(0,128,67)" width="99" height="1" stroke="none"/>
      <rect x="376" y="1" clip-path="url(#clipPath2)" fill="rgb(0,128,67)" width="1" height="27" stroke="none"/>
    </g>
    <g font-size="13px" stroke-linecap="butt" transform="matrix(1,0,0,1,-1,109)" text-rendering="geometricPrecision" font-family="sans-serif" shape-rendering="geometricPrecision" font-weight="bold" stroke-miterlimit="1.45">
      <text x="306.127" xml:space="preserve" y="18.1775" clip-path="url(#clipPath4)" stroke="none">Order</text>
    </g>
    <g fill="rgb(0,184,97)" text-rendering="geometricPrecision" shape-rendering="geometricPrecision" transform="matrix(1,0,0,1,-1,109)" stroke="rgb(0,184,97)">
      <rect x="17" width="98" height="26" y="2" clip-path="url(#clipPath2)" stroke="none"/>
      <rect x="16" y="1" clip-path="url(#clipPath2)" fill="rgb(0,255,138)" width="1" height="28" stroke="none"/>
      <rect x="17" y="1" clip-path="url(#clipPath2)" fill="rgb(0,255,138)" width="98" height="1" stroke="none"/>
      <rect x="17" y="28" clip-path="url(#clipPath2)" fill="rgb(0,128,67)" width="99" height="1" stroke="none"/>
      <rect x="115" y="1" clip-path="url(#clipPath2)" fill="rgb(0,128,67)" width="1" height="27" stroke="none"/>
    </g>
    <g font-size="13px" stroke-linecap="butt" transform="matrix(1,0,0,1,-1,109)" text-rendering="geometricPrecision" font-family="sans-serif" shape-rendering="geometricPrecision" font-weight="bold" stroke-miterlimit="1.45">
      <text x="31.3808" xml:space="preserve" y="18.1775" clip-path="url(#clipPath5)" stroke="none">Customer</text>
      <path fill="none" d="M117.6071 257.9531 L276.125 257.9531" clip-path="url(#clipPath2)"/>
      <path d="M109.6071 257.9531 L121.6071 262.9531 L118.6071 257.9531 L121.6071 252.9531 Z" stroke="none" clip-path="url(#clipPath2)"/>
      <path d="M284.125 257.9531 L272.125 252.9531 L275.125 257.9531 L272.125 262.9531 Z" stroke="none" clip-path="url(#clipPath2)"/>
      <path fill="none" d="M117.6071 386.9531 L276.125 386.9531" clip-path="url(#clipPath2)"/>
      <path d="M109.6071 386.9531 L121.6071 391.9531 L118.6071 386.9531 L121.6071 381.9531 Z" stroke="none" clip-path="url(#clipPath2)"/>
      <path d="M284.125 386.9531 L272.125 381.9531 L275.125 386.9531 L272.125 391.9531 Z" stroke="none" clip-path="url(#clipPath2)"/>
      <path fill="none" d="M376.1966 244.0614 L538.5714 198.0948" clip-path="url(#clipPath2)"/>
      <path d="M368.4991 246.2405 L381.4073 247.7828 L377.1588 243.7891 L378.6834 238.161 Z" stroke="none" clip-path="url(#clipPath2)"/>
      <path d="M546.2689 195.9157 L533.3607 194.3734 L537.6092 198.3672 L536.0845 203.9953 Z" stroke="none" clip-path="url(#clipPath2)"/>
      <path fill="none" d="M375.4006 403.399 L539.3674 459.2572" clip-path="url(#clipPath2)"/>
      <path d="M367.8279 400.8193 L377.5746 409.4218 L376.3472 403.7215 L380.7993 399.956 Z" stroke="none" clip-path="url(#clipPath2)"/>
      <path d="M546.94 461.8369 L537.1934 453.2344 L538.4208 458.9347 L533.9687 462.7002 Z" stroke="none" clip-path="url(#clipPath2)"/>
      <path fill="none" d="M376.2822 271.5388 L538.4857 316.3674" clip-path="url(#clipPath2)"/>
      <path d="M368.5713 269.4077 L378.8058 277.4237 L377.2461 271.8052 L381.4696 267.785 Z" stroke="none" clip-path="url(#clipPath2)"/>
      <path d="M546.1967 318.4985 L535.9622 310.4826 L537.5219 316.101 L533.2983 320.1212 Z" stroke="none" clip-path="url(#clipPath2)"/>
      <path fill="none" d="M587.6429 29.4956 L587.6429 80.6128 L360.9667 80.6128 L360.9667 37.5015" clip-path="url(#clipPath2)"/>
      <path d="M360.9667 29.5015 L355.9667 41.5015 L360.9667 38.5015 L365.9667 41.5015 Z" stroke="none" clip-path="url(#clipPath2)"/>
      <text x="455.0743" font-size="12px" y="114.7671" clip-path="url(#clipPath2)" stroke="none" font-weight="normal" xml:space="preserve">orders</text>
      <path fill="none" d="M359.5643 1.1071 L359.5643 -54.0825 L587.6429 -54.0825 L587.6429 -6.8908" clip-path="url(#clipPath2)"/>
      <path d="M587.6429 1.1092 L592.6429 -10.8908 L587.6429 -7.8908 L582.6429 -10.8908 Z" stroke="none" clip-path="url(#clipPath2)"/>
      <text x="448.0157" font-size="12px" y="-79.9282" clip-path="url(#clipPath2)" stroke="none" font-weight="normal" xml:space="preserve">portraits</text>
      <path fill="none" d="M299.25 29.5002 L299.25 80.205 L66.6071 80.205 L66.6071 37.4704" clip-path="url(#clipPath2)"/>
      <path d="M66.6071 29.4704 L61.6071 41.4704 L66.6071 38.4704 L71.6071 41.4704 Z" stroke="none" clip-path="url(#clipPath2)"/>
      <text x="154.6746" font-size="12px" y="114.3593" clip-path="url(#clipPath2)" stroke="none" font-weight="normal" xml:space="preserve">customer</text>
      <path fill="none" d="M66.6071 1.1004 L66.6071 -54.795 L66.6071 -54.795 L298.4582 -54.795 L298.4582 -6.9165" clip-path="url(#clipPath2)"/>
      <path d="M298.4582 1.0835 L303.4582 -10.9165 L298.4582 -7.9165 L293.4582 -10.9165 Z" stroke="none" clip-path="url(#clipPath2)"/>
      <text x="163.3022" font-size="12px" y="-80.6407" clip-path="url(#clipPath2)" stroke="none" font-weight="normal" xml:space="preserve">orders</text>
    </g>
  </g>
</svg>
